<mxfile host="app.diagrams.net" modified="2023-11-04T02:51:05.123Z" agent="Mozilla/5.0 (Macintosh; Intel Mac OS X 10_15_7) AppleWebKit/537.36 (KHTML, like Gecko) Chrome/116.0.0.0 Safari/537.36 Edg/116.0.1938.76" etag="98rLv7lV98kMWL8NO_BM" version="22.0.8" type="github">
  <diagram name="第 1 页" id="Ze0jnDnfLPyHOgXYB_ot">
    <mxGraphModel dx="954" dy="623" grid="1" gridSize="10" guides="1" tooltips="1" connect="1" arrows="1" fold="1" page="1" pageScale="1" pageWidth="827" pageHeight="1169" math="0" shadow="0">
      <root>
        <mxCell id="0" />
        <mxCell id="1" parent="0" />
        <mxCell id="qzIb_nU2oz7oTCQaS19U-1" value="&lt;font style=&quot;font-size: 20px;&quot;&gt;UE4 Frame&lt;/font&gt;" style="rounded=0;whiteSpace=wrap;html=1;" vertex="1" parent="1">
          <mxGeometry x="70" y="30" width="120" height="60" as="geometry" />
        </mxCell>
        <mxCell id="qzIb_nU2oz7oTCQaS19U-2" value="InitViews" style="rounded=1;whiteSpace=wrap;html=1;" vertex="1" parent="1">
          <mxGeometry x="70" y="140" width="100" height="30" as="geometry" />
        </mxCell>
        <mxCell id="qzIb_nU2oz7oTCQaS19U-3" value="PrePass/PreZ" style="rounded=1;whiteSpace=wrap;html=1;" vertex="1" parent="1">
          <mxGeometry x="70" y="200" width="100" height="30" as="geometry" />
        </mxCell>
        <mxCell id="qzIb_nU2oz7oTCQaS19U-4" value="Occlusion Culling" style="rounded=1;whiteSpace=wrap;html=1;" vertex="1" parent="1">
          <mxGeometry x="70" y="250" width="100" height="30" as="geometry" />
        </mxCell>
        <mxCell id="qzIb_nU2oz7oTCQaS19U-5" value="ShadowDepth" style="rounded=1;whiteSpace=wrap;html=1;" vertex="1" parent="1">
          <mxGeometry x="70" y="300" width="100" height="30" as="geometry" />
        </mxCell>
        <mxCell id="qzIb_nU2oz7oTCQaS19U-8" value="" style="edgeStyle=orthogonalEdgeStyle;rounded=0;orthogonalLoop=1;jettySize=auto;html=1;" edge="1" parent="1" source="qzIb_nU2oz7oTCQaS19U-6" target="qzIb_nU2oz7oTCQaS19U-7">
          <mxGeometry relative="1" as="geometry" />
        </mxCell>
        <mxCell id="qzIb_nU2oz7oTCQaS19U-6" value="ComputeLightGrid" style="rounded=1;whiteSpace=wrap;html=1;" vertex="1" parent="1">
          <mxGeometry x="70" y="350" width="100" height="30" as="geometry" />
        </mxCell>
        <mxCell id="qzIb_nU2oz7oTCQaS19U-7" value="BasePass/GBuffer" style="rounded=1;whiteSpace=wrap;html=1;" vertex="1" parent="1">
          <mxGeometry x="70" y="400" width="100" height="30" as="geometry" />
        </mxCell>
        <mxCell id="qzIb_nU2oz7oTCQaS19U-9" value="RenderOcclusion" style="whiteSpace=wrap;html=1;rounded=1;" vertex="1" parent="1">
          <mxGeometry x="240" y="235" width="120" height="60" as="geometry" />
        </mxCell>
        <mxCell id="qzIb_nU2oz7oTCQaS19U-11" value="" style="endArrow=none;html=1;rounded=0;" edge="1" parent="1">
          <mxGeometry width="50" height="50" relative="1" as="geometry">
            <mxPoint x="170" y="263.75" as="sourcePoint" />
            <mxPoint x="236" y="264" as="targetPoint" />
          </mxGeometry>
        </mxCell>
      </root>
    </mxGraphModel>
  </diagram>
</mxfile>
